<mxfile host="app.diagrams.net" modified="2023-06-07T15:45:34.729Z" agent="Mozilla/5.0 (Windows NT 10.0; Win64; x64) AppleWebKit/537.36 (KHTML, like Gecko) Chrome/109.0.0.0 Safari/537.36" version="21.3.7" etag="Y10ljps-VEzDIyYG7FX-" type="github">
  <diagram name="Page-1" id="Z4hU_i1W0K4hISijN-ml">
    <mxGraphModel>
      <root>
        <mxCell id="0" />
        <mxCell id="1" parent="0" />
      </root>
    </mxGraphModel>
  </diagram>
</mxfile>
